<?xml version="1.0" encoding="UTF-8" standalone="no"?>
<!DOCTYPE svg PUBLIC "-//W3C//DTD SVG 1.1//EN" "http://www.w3.org/Graphics/SVG/1.1/DTD/svg11.dtd">
<svg width="100%" height="100%" viewBox="0 0 363 226" version="1.1" xmlns="http://www.w3.org/2000/svg" xmlns:xlink="http://www.w3.org/1999/xlink" xml:space="preserve" xmlns:serif="http://www.serif.com/" style="fill-rule:evenodd;clip-rule:evenodd;stroke-linejoin:round;stroke-miterlimit:2;">
    <g transform="matrix(1,0,0,1,-2.16574,-10.2022)">
        <g id="innerface" transform="matrix(0.974411,0,0,1.11342,-283.564,-417.217)">
            <g transform="matrix(1.02831,-0.00696444,0.00370864,0.898139,508.155,471.318)">
                <text x="0px" y="0px" style="font-family:'Quicksand-Light', 'Quicksand';font-weight:300;font-size:187.5px;fill:white;">o</text>
            </g>
            <g transform="matrix(1.0283,-0.00890694,0.00770844,0.898115,466.274,497.246)">
                <text x="0px" y="0px" style="font-family:'Quicksand-Light', 'Quicksand';font-weight:300;font-size:187.5px;fill:white;">r</text>
            </g>
            <g transform="matrix(1.02831,-0.00773428,0.0031746,0.898147,380.614,471.434)">
                <text x="0px" y="0px" style="font-family:'Quicksand-Light', 'Quicksand';font-weight:300;font-size:187.5px;fill:white;">e</text>
            </g>
            <g id="Layer1" transform="matrix(0.955128,0,0,0.957069,218.391,199.901)">
                <g transform="matrix(1.07447,0,0,0.938425,-96.025,-121.432)">
                    <g>
                        <g transform="matrix(1,0,0,1,215.417,506.833)">
                            <text x="0px" y="0px" style="font-family:'Quicksand-Light', 'Quicksand';font-weight:300;font-size:41.667px;fill:white;">e</text>
                        </g>
                        <g transform="matrix(1,0,0,1,240.667,506.833)">
                            <text x="0px" y="0px" style="font-family:'Quicksand-Light', 'Quicksand';font-weight:300;font-size:41.667px;fill:white;">rick<tspan x="67.126px " y="0px ">a</tspan> r<tspan x="114.501px " y="0px ">.</tspan> odom</text>
                        </g>
                    </g>
                </g>
                <g transform="matrix(1.07447,0,0,0.938425,-125.97,-88.3063)">
                    <g>
                        <g transform="matrix(1,0,0,1,189,516.17)">
                            <text x="0px" y="0px" style="font-family:'Quicksand-Light', 'Quicksand';font-weight:300;font-size:41.667px;fill:white;">f</text>
                        </g>
                        <g transform="matrix(1,0,0,1,205,516.17)">
                            <text x="0px" y="0px" style="font-family:'Quicksand-Light', 'Quicksand';font-weight:300;font-size:41.667px;fill:white;">r<tspan x="14.417px " y="0px ">o</tspan>nt<tspan x="76.084px " y="0px ">e</tspan>nd de<tspan x="207.21px 228.585px 251.752px 260.335px " y="0px 0px 0px 0px ">velo</tspan>per</text>
                        </g>
                    </g>
                </g>
            </g>
        </g>
    </g>
</svg>
